# Blender v2.78 (sub 0) OBJ File: 'VCross.blend'
# www.blender.org
o Cube
v 0.121675 -2.500000 -0.121675
v 0.121675 -2.500000 0.121675
v -0.121675 -2.500000 0.121675
v -0.121675 -2.500000 -0.121675
v 0.112467 2.500000 -0.112467
v 0.112467 2.500000 0.112467
v -0.112467 2.500000 0.112467
v -0.112467 2.500000 -0.112467
v 1.000000 1.500000 -0.999999
v 0.999999 1.500000 1.000001
v -1.000000 1.500000 -1.000000
v -1.000000 1.500000 1.000000
v 1.000000 -1.500000 -1.000000
v 1.000000 -1.500000 1.000000
v -1.000000 -1.500000 -1.000000
v -1.000000 -1.500000 1.000000
vn 0.0000 -1.0000 -0.0000
vn 0.0000 1.0000 0.0000
vn 1.0000 0.0000 0.0000
vn -0.0000 -0.0000 1.0000
vn -1.0000 -0.0000 -0.0000
vn 0.0000 0.0000 -1.0000
vn 0.7479 0.6638 0.0000
vn 0.0000 0.6638 -0.7479
vn -0.0000 0.6638 0.7479
vn -0.7479 0.6638 -0.0000
vn 0.7513 -0.6599 0.0000
vn 0.0000 -0.6599 -0.7513
vn -0.0000 -0.6599 0.7513
vn -0.7513 -0.6599 -0.0000
s off
f 1//1 2//1 3//1 4//1
f 5//2 8//2 7//2 6//2
f 13//3 9//3 10//3 14//3
f 14//4 10//4 12//4 16//4
f 16//5 12//5 11//5 15//5
f 9//6 13//6 15//6 11//6
f 5//7 6//7 10//7 9//7
f 8//8 5//8 9//8 11//8
f 6//9 7//9 12//9 10//9
f 7//10 8//10 11//10 12//10
f 2//11 1//11 13//11 14//11
f 1//12 4//12 15//12 13//12
f 3//13 2//13 14//13 16//13
f 4//14 3//14 16//14 15//14
